<?xml version="1.0" encoding="UTF-8"?>
<svg xmlns="http://www.w3.org/2000/svg" xmlns:xlink="http://www.w3.org/1999/xlink" viewBox="0 0 853.6 264.47">
  <defs>
    <style>
      .cls-1, .cls-2 {
        opacity: .6;
      }

      .cls-3 {
        opacity: .2;
      }

      .cls-3, .cls-4, .cls-5, .cls-6, .cls-7, .cls-2 {
        fill: #fff;
      }

      .cls-8 {
        fill: url(#Unnamed_Pattern_54);
        fill-opacity: .8;
      }

      .cls-9 {
        stroke-width: 2px;
      }

      .cls-9, .cls-10 {
        fill: none;
      }

      .cls-9, .cls-11 {
        stroke: #999;
      }

      .cls-5 {
        opacity: .5;
      }

      .cls-12 {
        fill: url(#Unnamed_Pattern_26);
        mix-blend-mode: multiply;
        opacity: .81;
      }

      .cls-13 {
        fill: #f9f9f9;
      }

      .cls-14 {
        filter: url(#drop-shadow-1);
      }

      .cls-15 {
        isolation: isolate;
      }

      .cls-6 {
        opacity: .3;
      }

      .cls-16 {
        fill: #f5bca5;
      }

      .cls-11 {
        fill: #b6b6b6;
        stroke-width: 3px;
      }

      .cls-7 {
        opacity: .4;
      }

      .cls-17 {
        fill: #e33b2c;
      }

      .cls-18 {
        fill: #e84908;
      }

      .cls-19 {
        fill: url(#_名称未設定グラデーション_19);
      }
    </style>
    <filter id="drop-shadow-1" x="-1.4" y="-1.12" width="860" height="271" filterUnits="userSpaceOnUse">
      <feOffset dx="2" dy="2"/>
      <feGaussianBlur result="blur" stdDeviation="1"/>
      <feFlood flood-color="#000" flood-opacity=".7"/>
      <feComposite in2="blur" operator="in"/>
      <feComposite in="SourceGraphic"/>
    </filter>
    <linearGradient id="_名称未設定グラデーション_19" data-name="名称未設定グラデーション 19" x1="3765.46" y1="5140.18" x2="4473.04" y2="4561.24" gradientTransform="translate(-3467.46 -4777.23)" gradientUnits="userSpaceOnUse">
      <stop offset="0" stop-color="#c08714"/>
      <stop offset=".17" stop-color="#d2a33d"/>
      <stop offset=".39" stop-color="#e7c46d"/>
      <stop offset=".5" stop-color="#f0d180"/>
      <stop offset=".61" stop-color="#e7c46d"/>
      <stop offset=".83" stop-color="#d2a33d"/>
      <stop offset="1" stop-color="#c08714"/>
    </linearGradient>
    <pattern id="Unnamed_Pattern_54" data-name="Unnamed Pattern 54" x="0" y="0" width="187.31" height="187.31" patternTransform="translate(-7231.54 -5179.27) scale(.49 -.49)" patternUnits="userSpaceOnUse" viewBox="0 0 187.31 187.31">
      <g>
        <rect class="cls-10" x="0" width="187.31" height="187.31"/>
        <g>
          <path class="cls-7" d="M136.96,38.64c-7.94,12.64-17.05,24.53-27.19,35.48"/>
          <path class="cls-2" d="M138.18,89.08c4.22,6.77,6.53,14.71,6.61,22.68"/>
          <path class="cls-2" d="M48.24,21.22c3.09-2.29,6.8-3.67,10.59-3.94"/>
          <g class="cls-1">
            <path class="cls-4" d="M140.8,179.53c2.3,1.79,4.59,3.57,6.98,5.22l3.58,2.45c1.19.81,2.32,1.74,3.46,2.48,1.13.75,2.38,1.32,3.69,1.24,1.29-.09,2.55-.95,3.22-2.16.34-.6.54-1.28.55-1.98,0-.7-.19-1.4-.54-2.02-.67-1.26-1.98-2.19-3.43-2.35,1.46.11,2.81,1,3.59,2.25.41.62.64,1.35.7,2.11.05.75-.11,1.53-.43,2.22-.65,1.37-1.91,2.52-3.52,2.86-1.6.36-3.25-.12-4.61-.8-2.73-1.42-4.84-3.37-7.03-5.34-2.15-1.98-4.26-4.01-6.21-6.17Z"/>
          </g>
          <path class="cls-6" d="M46.62,60c-4.84.54-9.49,2.67-13.05,5.99"/>
          <path class="cls-6" d="M27.09,20.46c5.2,4.06,9.81,8.87,13.65,14.24"/>
          <path class="cls-6" d="M62.88,154.37c2.6,2.32,4.9,5.06,6.82,8.12"/>
          <path class="cls-6" d="M132.09,57.91c3.36.9,6.66,2.31,9.75,4.18"/>
          <path class="cls-2" d="M11.95,169.78c2.4-3.06,5.49-5.57,8.99-7.28"/>
          <path class="cls-3" d="M78.41,32.35c2.4-7.32,5.49-13.31,8.99-17.4"/>
          <path class="cls-2" d="M8.32,116.83c-.97,3.43-.78,7.18.54,10.49"/>
          <path class="cls-6" d="M100.16,133.17c-6.08.38-12.28-1.37-17.26-4.88"/>
          <g class="cls-1">
            <path class="cls-4" d="M59.06,103.68c.31-2.1.7-4.18,1.12-6.26.2-1.04.41-2.08.63-3.11.24-1.02.36-2.09.92-3.16.28-.52.71-1.03,1.32-1.29.61-.28,1.33-.25,1.9,0,1.15.48,1.95,1.54,2.11,2.75.09,1.25-.54,2.33-1.35,3.07-.84.73-1.86,1.19-2.91,1.37.98-.4,1.89-.96,2.56-1.72.68-.72,1.08-1.74.93-2.62-.14-.89-.86-1.69-1.66-2.01-.82-.35-1.64.08-2.08.9-.45.81-.62,1.88-.9,2.9-.25,1.03-.53,2.05-.81,3.07-.55,2.04-1.12,4.08-1.77,6.1Z"/>
          </g>
          <g class="cls-1">
            <path class="cls-4" d="M167.23,57.54c.21-1.69.43-3.38.89-5.05.46-1.66,1.2-3.31,2.41-4.66.62-.69,1.39-1.24,2.22-1.64.83-.41,1.74-.76,2.7-.7.94.04,1.9.26,2.7.76.81.48,1.45,1.23,1.7,2.07-1.22-1.29-2.85-1.56-4.34-1.35-.74.13-1.51.17-2.24.42-.73.26-1.41.66-1.98,1.18-1.19,1.08-2.03,2.54-2.64,4.09-.62,1.56-1.03,3.22-1.42,4.87Z"/>
          </g>
          <path class="cls-5" d="M172.45,131.14c8.26,6.57,17.51,11.89,27.35,15.72"/>
        </g>
        <path class="cls-5" d="M-14.87,131.14c8.26,6.57,17.51,11.89,27.35,15.72"/>
        <g class="cls-1">
          <path class="cls-4" d="M140.8-7.78c2.3,1.79,4.59,3.57,6.98,5.22l3.58,2.45c1.19.81,2.32,1.74,3.46,2.48,1.13.75,2.38,1.32,3.69,1.24,1.29-.09,2.55-.95,3.22-2.16.34-.6.54-1.28.55-1.98,0-.7-.19-1.4-.54-2.02-.67-1.26-1.98-2.19-3.43-2.35,1.46.11,2.81,1,3.59,2.25.41.62.64,1.35.7,2.11.05.75-.11,1.53-.43,2.22-.65,1.37-1.91,2.52-3.52,2.86-1.6.36-3.25-.12-4.61-.8-2.73-1.42-4.84-3.37-7.03-5.34-2.15-1.98-4.26-4.01-6.21-6.17Z"/>
        </g>
      </g>
    </pattern>
    <pattern id="Unnamed_Pattern_26" data-name="Unnamed Pattern 26" x="0" y="0" width="69.6" height="46.08" patternTransform="translate(-5956.26 2808.56) scale(.66)" patternUnits="userSpaceOnUse" viewBox="0 0 69.6 46.08">
      <g>
        <rect class="cls-10" y="0" width="69.6" height="46.08"/>
        <g>
          <path class="cls-17" d="M38.06,14.98C38.06,35.97,20.99,53.04,0,53.04S-38.06,35.97-38.06,14.98-20.99-23.08,0-23.08,38.06-6.01,38.06,14.98Z"/>
          <g>
            <path class="cls-16" d="M33.56,14.98C33.56-3.53,18.5-18.58,0-18.58S-33.56-3.53-33.56,14.98-18.5,48.54,0,48.54s33.56-15.05,33.56-33.56ZM29.56,14.98C29.56,31.28,16.3,44.54,0,44.54s-29.56-13.26-29.56-29.56S-16.3-14.58,0-14.58,29.56-1.32,29.56,14.98Z"/>
            <path class="cls-16" d="M25.05,14.98C25.05,1.16,13.81-10.08,0-10.08S-25.05,1.16-25.05,14.98-13.82,40.03,0,40.03s25.05-11.24,25.05-25.05ZM21.05,14.98C21.05,26.59,11.61,36.03,0,36.03s-21.05-9.44-21.05-21.05S-11.61-6.08,0-6.08,21.05,3.37,21.05,14.98Z"/>
            <path class="cls-16" d="M16.55,14.98C16.55,5.85,9.13-1.57,0-1.57S-16.55,5.85-16.55,14.98-9.13,31.53,0,31.53s16.55-7.42,16.55-16.55ZM12.55,14.98C12.55,21.9,6.92,27.53,0,27.53s-12.55-5.63-12.55-12.55S-6.92,2.43,0,2.43s12.55,5.63,12.55,12.55Z"/>
            <path class="cls-16" d="M8.05,14.98C8.05,10.54,4.44,6.93,0,6.93s-8.05,3.61-8.05,8.05S-4.44,23.02,0,23.02s8.05-3.61,8.05-8.05Z"/>
          </g>
        </g>
        <g>
          <path class="cls-17" d="M107.66,14.98c0,20.99-17.07,38.06-38.06,38.06S31.54,35.97,31.54,14.98s17.07-38.06,38.06-38.06S107.66-6.01,107.66,14.98Z"/>
          <g>
            <path class="cls-16" d="M103.15,14.98c0-18.5-15.05-33.56-33.56-33.56S36.04-3.53,36.04,14.98s15.05,33.56,33.56,33.56,33.56-15.05,33.56-33.56ZM99.15,14.98c0,16.3-13.26,29.56-29.56,29.56s-29.56-13.26-29.56-29.56,13.26-29.56,29.56-29.56,29.56,13.26,29.56,29.56Z"/>
            <path class="cls-16" d="M94.65,14.98c0-13.81-11.24-25.05-25.05-25.05S44.54,1.16,44.54,14.98s11.24,25.05,25.05,25.05,25.05-11.24,25.05-25.05ZM90.65,14.98c0,11.61-9.44,21.05-21.05,21.05s-21.05-9.44-21.05-21.05,9.44-21.05,21.05-21.05,21.05,9.44,21.05,21.05Z"/>
            <path class="cls-16" d="M86.15,14.98c0-9.13-7.42-16.55-16.55-16.55s-16.55,7.42-16.55,16.55,7.42,16.55,16.55,16.55,16.55-7.42,16.55-16.55ZM82.15,14.98c0,6.92-5.63,12.55-12.55,12.55s-12.55-5.63-12.55-12.55,5.63-12.55,12.55-12.55,12.55,5.63,12.55,12.55Z"/>
            <path class="cls-16" d="M77.64,14.98c0-4.44-3.61-8.05-8.05-8.05s-8.05,3.61-8.05,8.05,3.61,8.05,8.05,8.05,8.05-3.61,8.05-8.05Z"/>
          </g>
        </g>
        <g>
          <path class="cls-17" d="M72.86,38.03c0,20.99-17.07,38.06-38.06,38.06S-3.26,59.02-3.26,38.03,13.81-.03,34.8-.03s38.06,17.07,38.06,38.06Z"/>
          <g>
            <path class="cls-16" d="M68.36,38.03c0-18.5-15.05-33.56-33.56-33.56S1.24,19.53,1.24,38.03s15.05,33.56,33.56,33.56,33.56-15.05,33.56-33.56ZM64.36,38.03c0,16.3-13.26,29.56-29.56,29.56S5.24,54.33,5.24,38.03s13.26-29.56,29.56-29.56,29.56,13.26,29.56,29.56Z"/>
            <path class="cls-16" d="M59.85,38.03c0-13.81-11.24-25.05-25.05-25.05s-25.05,11.24-25.05,25.05,11.24,25.05,25.05,25.05,25.05-11.24,25.05-25.05ZM55.85,38.03c0,11.61-9.44,21.05-21.05,21.05s-21.05-9.44-21.05-21.05,9.44-21.05,21.05-21.05,21.05,9.44,21.05,21.05Z"/>
            <path class="cls-16" d="M51.35,38.03c0-9.13-7.42-16.55-16.55-16.55s-16.55,7.42-16.55,16.55,7.42,16.55,16.55,16.55,16.55-7.42,16.55-16.55ZM47.35,38.03c0,6.92-5.63,12.55-12.55,12.55s-12.55-5.63-12.55-12.55,5.63-12.55,12.55-12.55,12.55,5.63,12.55,12.55Z"/>
            <path class="cls-16" d="M42.84,38.03c0-4.44-3.61-8.05-8.05-8.05s-8.05,3.61-8.05,8.05,3.61,8.05,8.05,8.05,8.05-3.61,8.05-8.05Z"/>
          </g>
        </g>
        <g>
          <g>
            <path class="cls-17" d="M38.06,61.09C38.06,82.07,20.99,99.15,0,99.15s-38.06-17.07-38.06-38.06S-20.99,23.02,0,23.02s38.06,17.07,38.06,38.06Z"/>
            <g>
              <path class="cls-16" d="M33.56,61.09C33.56,42.58,18.5,27.53,0,27.53s-33.56,15.05-33.56,33.56S-18.5,94.64,0,94.64s33.56-15.05,33.56-33.56ZM29.56,61.09C29.56,77.38,16.3,90.64,0,90.64s-29.56-13.26-29.56-29.56S-16.3,31.53,0,31.53s29.56,13.26,29.56,29.56Z"/>
              <path class="cls-16" d="M25.05,61.09C25.05,47.27,13.81,36.03,0,36.03s-25.05,11.24-25.05,25.05S-13.81,86.14,0,86.14s25.05-11.24,25.05-25.05ZM21.05,61.09C21.05,72.69,11.61,82.14,0,82.14s-21.05-9.44-21.05-21.05S-11.61,40.03,0,40.03s21.05,9.44,21.05,21.05Z"/>
              <path class="cls-16" d="M16.55,61.09C16.55,51.96,9.13,44.54,0,44.54s-16.55,7.42-16.55,16.55S-9.13,77.64,0,77.64s16.55-7.42,16.55-16.55ZM12.55,61.09c0,6.92-5.63,12.55-12.55,12.55s-12.55-5.63-12.55-12.55S-6.92,48.54,0,48.54s12.55,5.63,12.55,12.55Z"/>
              <path class="cls-16" d="M8.05,61.09C8.05,56.65,4.44,53.04,0,53.04s-8.05,3.61-8.05,8.05S-4.44,69.13,0,69.13s8.05-3.61,8.05-8.05Z"/>
            </g>
          </g>
          <g>
            <path class="cls-17" d="M107.66,61.09c0,20.99-17.07,38.06-38.06,38.06s-38.06-17.07-38.06-38.06,17.07-38.06,38.06-38.06,38.06,17.07,38.06,38.06Z"/>
            <g>
              <path class="cls-16" d="M103.15,61.09c0-18.5-15.05-33.56-33.56-33.56s-33.56,15.05-33.56,33.56,15.05,33.56,33.56,33.56,33.56-15.05,33.56-33.56ZM99.15,61.09c0,16.3-13.26,29.56-29.56,29.56s-29.56-13.26-29.56-29.56,13.26-29.56,29.56-29.56,29.56,13.26,29.56,29.56Z"/>
              <path class="cls-16" d="M94.65,61.09c0-13.81-11.24-25.05-25.05-25.05s-25.05,11.24-25.05,25.05,11.24,25.05,25.05,25.05,25.05-11.24,25.05-25.05ZM90.65,61.09c0,11.61-9.44,21.05-21.05,21.05s-21.05-9.44-21.05-21.05,9.44-21.05,21.05-21.05,21.05,9.44,21.05,21.05Z"/>
              <path class="cls-16" d="M86.15,61.09c0-9.13-7.42-16.55-16.55-16.55s-16.55,7.42-16.55,16.55,7.42,16.55,16.55,16.55,16.55-7.42,16.55-16.55ZM82.15,61.09c0,6.92-5.63,12.55-12.55,12.55s-12.55-5.63-12.55-12.55,5.63-12.55,12.55-12.55,12.55,5.63,12.55,12.55Z"/>
              <path class="cls-16" d="M77.64,61.09c0-4.44-3.61-8.05-8.05-8.05s-8.05,3.61-8.05,8.05,3.61,8.05,8.05,8.05,8.05-3.61,8.05-8.05Z"/>
            </g>
          </g>
        </g>
      </g>
    </pattern>
  </defs>
  <g class="cls-15">
    <g id="_レイヤー_2" data-name="レイヤー 2">
      <g id="_メイン" data-name="メイン">
        <g class="cls-14">
          <g>
            <rect class="cls-19" x="486.91" y="34.01" width="191.75" height="191.75" transform="translate(-2.63 247.36) rotate(-23.91)"/>
            <polygon class="cls-8" points="709.29 178.67 534 256.39 456.28 81.09 631.57 3.38 709.29 178.67"/>
          </g>
          <g>
            <g>
              <circle class="cls-11" cx="132.24" cy="132.24" r="130.72"/>
              <circle class="cls-9" cx="132.24" cy="132.24" r="121.28"/>
            </g>
            <path class="cls-13" d="M37.89,173.48c-1.41-12.2-2.54-24.45-4.24-36.61-.5-3.57-1.1-7.13-1.6-10.7-3.69,2.49-6.3,6.3-10.2,8.71-2.45-2.02-3.04-4.1-3.44-7-.34-2.41.77-5.03,2.27-7.01,1.67-2.1,3.9-3.79,5.49-5.79,1.94-2.34,2.74-5.7,4.94-7.58.36-.25,1.52-1.1,1.91-1.15,3.19-.45,7.37.64,8.54,4.02-.1.7-1,8.31-.97,8.5,1.31,9.36,2.51,18.64,3.81,27.91,1.1,7.82,2.27,15.53,3.55,23.22l.05.39c.53,3.76-.18,9.28-3.72,11.35-3.17-.84-4.39-2.53-5.49-5.43-.22-.86-.77-1.96-.89-2.83Z"/>
            <path class="cls-13" d="M52.72,140.89c-2.19-15.64,4.7-36.68,22.85-39.23,2.22-.31,4.32,2.05,6.15,3.17.37-.15.95-.23,1.44-.3.97-.14,20.88-2.04,25.27,29.33,3.29,23.46-7.84,40.27-22.52,42.33-5.02.7-10.05-.07-14.68-2.18-13.07-6.14-16.45-18.37-18.3-31.59l-.22-1.54ZM97.96,132.87c-1.57-11.2-8.06-23.77-21.28-21.92-12.84,1.8-16.03,19.08-14.55,29.6,1.33,9.46,3.09,19.25,12.07,24.29,2.88,1.57,5.9,2.03,9.08,1.58,15.93-2.23,16.41-21.3,14.69-33.56Z"/>
            <path class="cls-13" d="M115.86,132.04c-2.19-15.64,4.7-36.68,22.85-39.23,2.22-.31,4.32,2.05,6.15,3.17.37-.15.95-.23,1.44-.3.97-.14,20.88-2.04,25.27,29.33,3.29,23.46-7.84,40.27-22.52,42.33-5.02.7-10.05-.07-14.68-2.18-13.07-6.14-16.45-18.37-18.3-31.59l-.22-1.54ZM161.1,124.03c-1.57-11.2-8.06-23.77-21.28-21.92-12.84,1.8-16.03,19.08-14.55,29.6,1.33,9.46,3.09,19.25,12.07,24.29,2.88,1.57,5.9,2.03,9.08,1.58,15.93-2.23,16.41-21.3,14.69-33.56Z"/>
            <path class="cls-13" d="M234.19,161.06c-3.33-1.85-4.67-4.9-7.48-7.24-3.03-2.72-6.06-3.63-8.54-7.09,2.34.17,4.92.22,7.36-.12,2.28-.32,4.74-1.08,4.34-3.92-.27-1.95-.45-3.83-.74-5.86-.46-3.25-1.02-6.65-1.81-9.94-3.57-.66-7.35-.38-10.92.12-4.71.66-10.27,1.85-14.49,4.27-2.29,1.4-5.73,3.46-7.5,5.61l-1.95-.31c.12,6.2,1.52,17.94.23,23.51l-1.49,1.2c-1.61-.27-3.78-2.12-4.02-3.83-.38-2.68-.37-5.58-.51-8.38-1.49-23.08-2.08-28.47-3.07-37.28-.55-1-3.18-6.1-3.29-6.92-.03-.24.01-.5.15-.68,2.98,0,6.08.81,9.11,1.13,9.98-3.3,20.1-6.21,30.33-8.89l2.85-2.14.41-.06.33-.05c2.11-.3,4.13,1.08,6.07,1.89,2.38.99,8.01,2.77,8.42,5.7.07.49-.01,1.08-.19,1.6-2.16,1.13-4.37,2.52-4,5.2.35,2.52.95,5.01,1.3,7.53,1.55,9.31,3.19,18.62,4.49,27.88,1.21,8.62,1.49,11.23-3.09,17.01l-2.31.08ZM202.89,120.44c-.42-.6-.61-1.41-.74-2.3s-.18-1.88-.27-2.53c-.4-2.85-3.78-3.28-4.13-5.8-2.56.69-5.02,1.45-7.47,2.29.19,5.53.7,10.93,1.45,16.29,3.7-2.01,7.39-4.02,11.23-5.63l-.07-2.31ZM211.68,119.87c2.51-.43,4.88-1.26,7.19-2.5,2.32,0,4.59.19,6.95.52-.69-4.96-1.47-9.91-2.33-14.84-1.4.03-2.72.13-4.1.33-3.74.52-7.31,1.69-10.85,3.01,1.3.4,3.33,1.27,3.53,2.74.15,1.06-.77,2.18-1.31,3.08l.91,7.66Z"/>
          </g>
          <rect class="cls-18" x="276.25" y="61.9" width="577.35" height="131.62" rx="7.15" ry="7.15"/>
          <rect class="cls-12" x="276.25" y="61.9" width="577.35" height="131.62" rx="7.15" ry="7.15"/>
          <path class="cls-4" d="M291.26,97.23c1.45.44,2.76.44,4.35.44,7.69,0,17.41-3.34,24.23-6.67,1.31-3.92,2.18-7.83,2.18-11.75,0-4.21-1.02-7.98-2.18-11.9.73,0,1.45-.15,2.32-.15,9.72,0,13.06,8.27,13.06,16.68v1.16c1.89-.29,3.92-.73,5.8-.73,4.06,0,10.88,1.74,10.88,6.96,0,9-19.59,11.03-24.95,20.17-4.21,7.25-23.07,48.89-29.6,48.89-5.22,0-5.8-12.77-5.8-16.39,0-4.06,16.25-26.7,19.59-32.06-9.14-.58-17.55-5.51-19.88-14.65ZM341.17,185.44c-3.05-.87-5.95-2.47-7.54-5.22-1.74-2.76-5.8-14.22-7.54-17.99-1.16-2.61-1.89-5.8-1.89-8.71,0-6.24,7.25-8.85,12.62-8.85s10.59.44,15.67,1.02c3.19-6.82-.29-25.24,9.87-27.71.58,10.16,5.22,17.99,5.22,28.73v1.6c8.12,3.48,20.89,7.4,20.89,18.28,0,3.77-2.9,5.8-6.24,5.8-4.79,0-12.48-3.19-16.83-5.22-8.56,10.45-10.88,13.93-24.23,18.28ZM337.69,155.99c-1.6,0-3.05.15-4.21.73,0,.14-.15.44-.15.58,0,3.63,4.79,9.72,8.27,10.74,4.06-1.45,7.4-5.37,8.7-9.29-3.19-1.74-9-2.76-12.62-2.76ZM398.48,113.05c-1.45,3.05-5.66,4.21-8.7,4.21-11.9,0-18.72-12.33-29.31-15.52,4.93-2.47,10.3-4.21,15.81-4.21,9.58,0,22.2,2.61,22.2,14.22v1.31Z"/>
          <path class="cls-4" d="M479.88,186.9c-18.86,0-34.68-16.1-34.68-35.69,0-8.7,2.32-18.72,8.56-25.39-8.56,3.92-17.12,7.69-25.68,12.19-3.77,2.03-7.4,4.5-11.46,6.24-1.6.87-4.21,1.89-6.24,1.89-2.03-1.45-2.03-6.24-2.03-8.41s2.47-9.29,4.64-9.87c2.47-.73,5.66-.58,8.27-1.02,17.85-12.48,36.42-26.41,47.3-45.85-1.31-3.05-3.92-5.22-6.67-6.82,2.61-1.89,6.96-4.21,10.45-4.21.72,0,1.31.15,1.89.29h.29c3.92,0,16.1,9.58,16.1,13.64v.15c-2.76,3.92-7.69,6.67-11.32,9.87-5.66,5.08-10.88,10.74-16.54,15.96,4.5-1.31,17.41-7.11,20.31-7.11.43,0,.87,0,1.16.15.44-.15,1.02-.15,1.6-.15,5.8,0,15.52,4.64,15.52,10.59,0,1.89-1.45,3.19-3.05,4.06-18.86,1.74-41.06,12.33-41.06,27.28,0,20.46,30.61,19.01,30.61,35.69,0,4.35-3.63,6.53-7.4,6.53h-.58ZM439.69,99.41c0,4.21-2.18,7.98-6.82,7.98-8.56,0-10.3-20.02-14.22-25.97,9.29.87,21.04,7.4,21.04,17.99ZM501.64,104.34c-3.92-5.37-7.84-16.25-8.85-22.92,9.29,2.32,19.88,11.17,19.88,21.47,0,2.61-2.18,4.93-4.5,5.66-2.61-.58-4.93-1.89-6.53-4.21ZM520.5,99.56c-.87,0-1.89-.29-2.47-.87-8.41-5.51-7.69-14.94-12.19-22.49,8.12,1.74,19.3,7.4,19.3,17.12,0,1.45-.14,2.61-.58,3.92-.87,1.16-2.47,2.32-4.06,2.32Z"/>
          <path class="cls-4" d="M577.52,180.51c-1.45,0-2.9-.15-4.21-.29,9-9.87,14.94-18.57,19.88-31.05-9-4.21-18.57-6.53-28.29-7.4-6.24,12.04-17.84,28-31.77,31.63-5.66-2.47-5.66-8.41-7.69-13.2-2.03-4.79-4.64-5.8-4.64-11.61,0-13.06,23.65-20.75,34.38-21.04,4.21-10.01,10.3-19.3,14.51-29.31-4.35.44-8.7,3.63-13.2,3.63-5.08,0-15.09-11.61-16.83-16.39,3.63,1.02,7.69,1.74,11.32,1.74s21.33-9.29,25.24-11.46c5.08.15,18.43,3.92,20.31,8.85-3.34,6.82-8.56,12.48-12.77,18.86-5.22,7.98-10.16,16.68-15.23,24.95,9.72,1.02,19.44,3.05,28.73,6.09,2.76-5.8,4.5-12.04,5.8-18.43-1.31-2.18-3.77-4.06-5.8-5.66,2.61-.87,7.55-5.37,9.14-5.37.29,0,.72.15,1.02.29,3.19.44,13.64,6.67,13.64,10.16,0,2.32-7.11,19.88-8.12,24.08,8.85,4.5,21.18,10.01,21.18,21.76,0,3.19-1.89,5.95-5.37,5.95-4.64,0-17.84-9-21.18-11.03-5.8,12.33-15.09,24.23-30.03,24.23ZM549.09,138.58c-5.22,0-16.54,5.51-16.54,11.61,0,1.6.44,4.35,2.61,4.35,5.66,0,12.04-11.61,14.51-15.96h-.58Z"/>
          <path class="cls-4" d="M663.01,143.95c-4.64-1.16-11.03-2.61-11.03-8.71,0-2.03,2.61-4.93,9.87-12.48,7.25-7.4,13.35-15.52,19.44-23.94,11.17-15.81,11.61-19.01,11.61-25.82,0-2.18-.15-4.21-.29-5.51,5.37,1.89,17.7,9.72,17.7,15.96,0,7.4-30.03,39.46-35.98,48.31,6.24,2.61,12.62,5.37,18.28,9.14,10.3,6.82,27.86,22.34,27.86,35.98,0,3.77-1.16,7.54-5.8,7.54-8.71,0-19.73-16.39-25.25-22.78-7.83-8.7-16.83-15.67-26.4-17.7Z"/>
          <path class="cls-4" d="M763.82,85.92c-1.02-3.63-2.76-7.98-2.76-11.61v-1.02l.14-1.31h.58c5.51,0,20.02,9.29,20.02,14.36,0,4.64-3.19,8.85-4.35,13.2-3.63,15.67-7.4,31.63-7.4,47.73,0,7.69,4.5,15.81,13.06,15.81,23.5,0,42.07-31.19,51.79-48.75-2.03,20.17-10.15,44.4-26.11,57.74-6.09,5.08-17.55,9-25.53,9-19.01,0-28-14.65-28-32.21,0-14.36,3.05-28.58,5.37-42.65l3.19-20.31ZM804.44,88.96c-2.03-3.48-4.5-6.82-6.96-10.01,21.04,2.76,26.84,14.94,26.84,18.86,0,2.61-1.74,5.51-4.35,6.38-7.98,0-12.33-9.29-15.52-15.23ZM835.78,87.95c0,.73,0,1.6-.14,2.47-1.02,1.6-2.61,2.9-4.79,2.9-7.98,0-13.93-16.1-18.14-21.47,9.29,1.16,23.07,4.5,23.07,16.1Z"/>
        </g>
      </g>
    </g>
  </g>
</svg>